<svg width="522" height="103" viewBox="0 0 522 103" fill="none" xmlns="http://www.w3.org/2000/svg">
<g filter="url(#filter0_d_38_25)">
<path d="M83.2056 57.15C82.459 57.6633 81.339 58.2933 79.8456 59.04C78.399 59.74 76.6723 60.3467 74.6656 60.86C72.7056 61.3733 70.5356 61.6067 68.1556 61.56C64.189 61.5133 60.619 60.8133 57.4456 59.46C54.319 58.1067 51.659 56.2633 49.4656 53.93C47.2723 51.55 45.569 48.8433 44.3556 45.81C43.189 42.73 42.6056 39.4633 42.6056 36.01C42.6056 32.1833 43.2123 28.6833 44.4256 25.51C45.639 22.29 47.3656 19.49 49.6056 17.11C51.8923 14.73 54.5523 12.8867 57.5856 11.58C60.6656 10.2733 64.0256 9.62 67.6656 9.62C70.7923 9.62 73.6156 10.04 76.1356 10.88C78.6556 11.72 80.779 12.7 82.5056 13.82L79.5656 20.82C78.2123 19.8867 76.5323 19 74.5256 18.16C72.5656 17.2733 70.3723 16.83 67.9456 16.83C65.5656 16.83 63.3023 17.32 61.1556 18.3C59.0556 19.2333 57.189 20.5633 55.5556 22.29C53.969 23.97 52.709 25.9533 51.7756 28.24C50.8423 30.48 50.3756 32.93 50.3756 35.59C50.3756 38.2967 50.7956 40.7933 51.6356 43.08C52.4756 45.3667 53.6656 47.35 55.2056 49.03C56.7923 50.71 58.6823 52.0167 60.8756 52.95C63.069 53.8833 65.5423 54.35 68.2956 54.35C70.909 54.35 73.1956 53.9533 75.1556 53.16C77.1623 52.3667 78.7956 51.4567 80.0556 50.43L83.2056 57.15ZM106.468 61.7C103.714 61.7 101.218 61.14 98.9775 60.02C96.7375 58.8533 94.9642 57.1267 93.6575 54.84C92.3508 52.5533 91.6975 49.73 91.6975 46.37C91.6975 43.0567 92.3742 40.21 93.7275 37.83C95.1275 35.45 96.9475 33.63 99.1875 32.37C101.474 31.0633 103.948 30.41 106.608 30.41C109.408 30.41 111.694 31.0167 113.468 32.23C115.288 33.3967 116.711 34.7733 117.738 36.36L117.248 37.48L117.948 31.67H124.598V61H117.388V53.65L118.158 55.4C117.971 55.7733 117.574 56.31 116.968 57.01C116.361 57.6633 115.544 58.3633 114.518 59.11C113.538 59.8567 112.371 60.4867 111.018 61C109.711 61.4667 108.194 61.7 106.468 61.7ZM108.428 55.82C109.968 55.82 111.344 55.54 112.558 54.98C113.771 54.42 114.798 53.6267 115.638 52.6C116.478 51.5733 117.061 50.36 117.388 48.96V42.87C117.014 41.5633 116.384 40.4433 115.498 39.51C114.611 38.53 113.538 37.76 112.278 37.2C111.064 36.64 109.711 36.36 108.218 36.36C106.538 36.36 104.998 36.78 103.598 37.62C102.198 38.4133 101.078 39.5333 100.238 40.98C99.3975 42.4267 98.9775 44.1067 98.9775 46.02C98.9775 47.84 99.3975 49.4967 100.238 50.99C101.124 52.4833 102.291 53.6733 103.738 54.56C105.184 55.4 106.748 55.82 108.428 55.82ZM145.583 61.63C143.437 61.63 141.36 61.2567 139.353 60.51C137.347 59.7167 135.69 58.5733 134.383 57.08L137.463 53.02C138.723 54.1867 139.983 55.0733 141.243 55.68C142.55 56.24 143.787 56.52 144.953 56.52C145.887 56.52 146.727 56.4267 147.473 56.24C148.22 56.0067 148.827 55.6333 149.293 55.12C149.76 54.6067 149.993 53.93 149.993 53.09C149.993 52.11 149.667 51.34 149.013 50.78C148.36 50.22 147.52 49.7533 146.493 49.38C145.467 49.0067 144.37 48.6567 143.203 48.33C140.73 47.5367 138.863 46.4167 137.603 44.97C136.343 43.4767 135.713 41.7267 135.713 39.72C135.713 38.18 136.087 36.7333 136.833 35.38C137.627 33.98 138.817 32.8367 140.403 31.95C141.99 31.0633 143.95 30.62 146.283 30.62C148.43 30.62 150.32 30.8767 151.953 31.39C153.587 31.8567 155.103 32.6733 156.503 33.84L153.703 38.18C152.863 37.34 151.86 36.71 150.693 36.29C149.573 35.8233 148.547 35.5667 147.613 35.52C146.773 35.52 146.003 35.66 145.303 35.94C144.603 36.1733 144.043 36.5467 143.623 37.06C143.203 37.5267 142.993 38.0867 142.993 38.74C142.947 39.6733 143.25 40.4433 143.903 41.05C144.603 41.61 145.49 42.0767 146.563 42.45C147.637 42.7767 148.687 43.1267 149.713 43.5C151.16 43.92 152.443 44.5033 153.563 45.25C154.683 45.95 155.57 46.8133 156.223 47.84C156.877 48.8667 157.203 50.1733 157.203 51.76C157.203 53.4867 156.783 55.12 155.943 56.66C155.103 58.1533 153.82 59.3667 152.093 60.3C150.367 61.1867 148.197 61.63 145.583 61.63ZM179.746 61.7C176.993 61.7 174.496 61.14 172.256 60.02C170.016 58.8533 168.243 57.1267 166.936 54.84C165.629 52.5533 164.976 49.73 164.976 46.37C164.976 43.0567 165.653 40.21 167.006 37.83C168.406 35.45 170.226 33.63 172.466 32.37C174.753 31.0633 177.226 30.41 179.886 30.41C182.686 30.41 184.973 31.0167 186.746 32.23C188.566 33.3967 189.989 34.7733 191.016 36.36L190.526 37.48L191.226 31.67H197.876V61H190.666V53.65L191.436 55.4C191.249 55.7733 190.853 56.31 190.246 57.01C189.639 57.6633 188.823 58.3633 187.796 59.11C186.816 59.8567 185.649 60.4867 184.296 61C182.989 61.4667 181.473 61.7 179.746 61.7ZM181.706 55.82C183.246 55.82 184.623 55.54 185.836 54.98C187.049 54.42 188.076 53.6267 188.916 52.6C189.756 51.5733 190.339 50.36 190.666 48.96V42.87C190.293 41.5633 189.663 40.4433 188.776 39.51C187.889 38.53 186.816 37.76 185.556 37.2C184.343 36.64 182.989 36.36 181.496 36.36C179.816 36.36 178.276 36.78 176.876 37.62C175.476 38.4133 174.356 39.5333 173.516 40.98C172.676 42.4267 172.256 44.1067 172.256 46.02C172.256 47.84 172.676 49.4967 173.516 50.99C174.403 52.4833 175.569 53.6733 177.016 54.56C178.463 55.4 180.026 55.82 181.706 55.82ZM275.727 56.52C275.027 57.1267 274.047 57.7333 272.787 58.34C271.527 58.9467 270.104 59.4833 268.517 59.95C266.977 60.4167 265.39 60.79 263.757 61.07C262.124 61.3967 260.584 61.56 259.137 61.56C255.03 61.56 251.344 60.93 248.077 59.67C244.81 58.41 242.01 56.66 239.677 54.42C237.344 52.18 235.547 49.5667 234.287 46.58C233.074 43.5467 232.467 40.2567 232.467 36.71C232.467 32.37 233.167 28.52 234.567 25.16C235.967 21.8 237.857 18.9767 240.237 16.69C242.664 14.3567 245.44 12.6067 248.567 11.44C251.74 10.2267 255.054 9.62 258.507 9.62C261.54 9.62 264.34 9.97 266.907 10.67C269.52 11.37 271.76 12.28 273.627 13.4L271.177 20.26C270.244 19.7467 269.077 19.2567 267.677 18.79C266.324 18.2767 264.924 17.88 263.477 17.6C262.03 17.32 260.7 17.18 259.487 17.18C256.5 17.18 253.817 17.6233 251.437 18.51C249.104 19.35 247.097 20.5867 245.417 22.22C243.737 23.8533 242.43 25.8367 241.497 28.17C240.61 30.5033 240.167 33.14 240.167 36.08C240.167 38.74 240.634 41.19 241.567 43.43C242.5 45.6233 243.807 47.5367 245.487 49.17C247.167 50.7567 249.174 51.9933 251.507 52.88C253.84 53.72 256.43 54.14 259.277 54.14C260.91 54.14 262.52 53.9767 264.107 53.65C265.694 53.3233 267.047 52.8567 268.167 52.25V43.01H258.367V35.8H275.727V56.52ZM297.56 62.19C294.854 62.19 292.637 61.3733 290.91 59.74C289.184 58.1067 288.274 56.0067 288.18 53.44V31.67H295.39V50.85C295.484 52.3433 295.904 53.58 296.65 54.56C297.444 55.4933 298.704 55.9833 300.43 56.03C302.017 56.03 303.417 55.5633 304.63 54.63C305.89 53.65 306.87 52.3433 307.57 50.71C308.317 49.03 308.69 47.1167 308.69 44.97V31.67H315.9V61H309.39L308.83 54.21L309.11 55.33C308.504 56.6367 307.64 57.8267 306.52 58.9C305.4 59.9267 304.07 60.72 302.53 61.28C300.99 61.8867 299.334 62.19 297.56 62.19ZM336.88 61.63C334.733 61.63 332.657 61.2567 330.65 60.51C328.643 59.7167 326.987 58.5733 325.68 57.08L328.76 53.02C330.02 54.1867 331.28 55.0733 332.54 55.68C333.847 56.24 335.083 56.52 336.25 56.52C337.183 56.52 338.023 56.4267 338.77 56.24C339.517 56.0067 340.123 55.6333 340.59 55.12C341.057 54.6067 341.29 53.93 341.29 53.09C341.29 52.11 340.963 51.34 340.31 50.78C339.657 50.22 338.817 49.7533 337.79 49.38C336.763 49.0067 335.667 48.6567 334.5 48.33C332.027 47.5367 330.16 46.4167 328.9 44.97C327.64 43.4767 327.01 41.7267 327.01 39.72C327.01 38.18 327.383 36.7333 328.13 35.38C328.923 33.98 330.113 32.8367 331.7 31.95C333.287 31.0633 335.247 30.62 337.58 30.62C339.727 30.62 341.617 30.8767 343.25 31.39C344.883 31.8567 346.4 32.6733 347.8 33.84L345 38.18C344.16 37.34 343.157 36.71 341.99 36.29C340.87 35.8233 339.843 35.5667 338.91 35.52C338.07 35.52 337.3 35.66 336.6 35.94C335.9 36.1733 335.34 36.5467 334.92 37.06C334.5 37.5267 334.29 38.0867 334.29 38.74C334.243 39.6733 334.547 40.4433 335.2 41.05C335.9 41.61 336.787 42.0767 337.86 42.45C338.933 42.7767 339.983 43.1267 341.01 43.5C342.457 43.92 343.74 44.5033 344.86 45.25C345.98 45.95 346.867 46.8133 347.52 47.84C348.173 48.8667 348.5 50.1733 348.5 51.76C348.5 53.4867 348.08 55.12 347.24 56.66C346.4 58.1533 345.117 59.3667 343.39 60.3C341.663 61.1867 339.493 61.63 336.88 61.63ZM361.593 18.79H368.803V31.74H376.643V37.41H368.803V61H361.593V37.41H356.413V31.74H361.593V18.79ZM395.208 62.19C392.501 62.19 390.284 61.3733 388.558 59.74C386.831 58.1067 385.921 56.0067 385.828 53.44V31.67H393.038V50.85C393.131 52.3433 393.551 53.58 394.298 54.56C395.091 55.4933 396.351 55.9833 398.078 56.03C399.664 56.03 401.064 55.5633 402.278 54.63C403.538 53.65 404.518 52.3433 405.218 50.71C405.964 49.03 406.338 47.1167 406.338 44.97V31.67H413.548V61H407.038L406.478 54.21L406.758 55.33C406.151 56.6367 405.288 57.8267 404.168 58.9C403.048 59.9267 401.718 60.72 400.178 61.28C398.638 61.8867 396.981 62.19 395.208 62.19ZM425.987 6.61H433.197V61H425.987V6.61ZM454.951 62.19C452.244 62.19 450.028 61.3733 448.301 59.74C446.574 58.1067 445.664 56.0067 445.571 53.44V31.67H452.781V50.85C452.874 52.3433 453.294 53.58 454.041 54.56C454.834 55.4933 456.094 55.9833 457.821 56.03C459.408 56.03 460.808 55.5633 462.021 54.63C463.281 53.65 464.261 52.3433 464.961 50.71C465.708 49.03 466.081 47.1167 466.081 44.97V31.67H473.291V61H466.781L466.221 54.21L466.501 55.33C465.894 56.6367 465.031 57.8267 463.911 58.9C462.791 59.9267 461.461 60.72 459.921 61.28C458.381 61.8867 456.724 62.19 454.951 62.19ZM485.731 31.67H492.941V61H485.731V31.67ZM485.311 21.17C485.311 20.05 485.754 19.1167 486.641 18.37C487.527 17.6233 488.484 17.25 489.511 17.25C490.584 17.25 491.541 17.6233 492.381 18.37C493.221 19.1167 493.641 20.05 493.641 21.17C493.641 22.29 493.221 23.2233 492.381 23.97C491.541 24.67 490.584 25.02 489.511 25.02C488.484 25.02 487.527 24.67 486.641 23.97C485.754 23.2233 485.311 22.29 485.311 21.17Z" fill="white"/>
<path d="M47.3313 83.944L47.5713 86.824L47.4513 86.44C47.7233 85.832 48.1073 85.312 48.6033 84.88C49.0993 84.448 49.6113 84.12 50.1393 83.896C50.6833 83.656 51.1393 83.536 51.5073 83.536L51.3873 85.984C50.6193 85.936 49.9473 86.08 49.3713 86.416C48.8113 86.752 48.3713 87.2 48.0513 87.76C47.7313 88.32 47.5713 88.92 47.5713 89.56V94H45.1233V83.944H47.3313ZM62.217 94.24C61.049 94.24 60.049 94.016 59.217 93.568C58.385 93.104 57.745 92.472 57.297 91.672C56.849 90.856 56.625 89.928 56.625 88.888C56.625 87.896 56.873 87 57.369 86.2C57.881 85.384 58.561 84.736 59.409 84.256C60.273 83.776 61.225 83.536 62.265 83.536C63.609 83.536 64.721 83.928 65.601 84.712C66.497 85.496 67.097 86.592 67.401 88L59.217 90.832L58.641 89.392L65.193 87.04L64.689 87.352C64.497 86.856 64.193 86.424 63.777 86.056C63.361 85.672 62.793 85.48 62.073 85.48C61.497 85.48 60.977 85.624 60.513 85.912C60.065 86.184 59.705 86.568 59.433 87.064C59.177 87.544 59.049 88.112 59.049 88.768C59.049 89.44 59.185 90.032 59.457 90.544C59.745 91.04 60.129 91.432 60.609 91.72C61.105 92.008 61.657 92.152 62.265 92.152C62.697 92.152 63.105 92.072 63.489 91.912C63.889 91.752 64.265 91.552 64.617 91.312L65.745 93.136C65.217 93.472 64.641 93.744 64.017 93.952C63.409 94.144 62.809 94.24 62.217 94.24ZM76.6732 94.216C75.9372 94.216 75.2252 94.088 74.5372 93.832C73.8492 93.56 73.2812 93.168 72.8332 92.656L73.8892 91.264C74.3212 91.664 74.7532 91.968 75.1852 92.176C75.6332 92.368 76.0572 92.464 76.4572 92.464C76.7772 92.464 77.0652 92.432 77.3212 92.368C77.5772 92.288 77.7852 92.16 77.9452 91.984C78.1052 91.808 78.1852 91.576 78.1852 91.288C78.1852 90.952 78.0732 90.688 77.8492 90.496C77.6252 90.304 77.3372 90.144 76.9852 90.016C76.6332 89.888 76.2572 89.768 75.8572 89.656C75.0092 89.384 74.3692 89 73.9372 88.504C73.5052 87.992 73.2892 87.392 73.2892 86.704C73.2892 86.176 73.4172 85.68 73.6732 85.216C73.9452 84.736 74.3532 84.344 74.8972 84.04C75.4412 83.736 76.1132 83.584 76.9132 83.584C77.6492 83.584 78.2972 83.672 78.8572 83.848C79.4172 84.008 79.9372 84.288 80.4172 84.688L79.4572 86.176C79.1692 85.888 78.8252 85.672 78.4252 85.528C78.0412 85.368 77.6892 85.28 77.3692 85.264C77.0812 85.264 76.8172 85.312 76.5772 85.408C76.3372 85.488 76.1452 85.616 76.0012 85.792C75.8572 85.952 75.7852 86.144 75.7852 86.368C75.7692 86.688 75.8732 86.952 76.0972 87.16C76.3372 87.352 76.6412 87.512 77.0092 87.64C77.3772 87.752 77.7372 87.872 78.0892 88C78.5852 88.144 79.0252 88.344 79.4092 88.6C79.7932 88.84 80.0972 89.136 80.3212 89.488C80.5452 89.84 80.6572 90.288 80.6572 90.832C80.6572 91.424 80.5132 91.984 80.2252 92.512C79.9372 93.024 79.4972 93.44 78.9052 93.76C78.3132 94.064 77.5692 94.216 76.6732 94.216ZM88.2662 79.528H90.7382V83.968H93.4262V85.912H90.7382V94H88.2662V85.912H86.4902V83.968H88.2662V79.528ZM103.895 94.24C102.951 94.24 102.095 94.048 101.327 93.664C100.559 93.264 99.9512 92.672 99.5032 91.888C99.0552 91.104 98.8312 90.136 98.8312 88.984C98.8312 87.848 99.0632 86.872 99.5272 86.056C100.007 85.24 100.631 84.616 101.399 84.184C102.183 83.736 103.031 83.512 103.943 83.512C104.903 83.512 105.687 83.72 106.295 84.136C106.919 84.536 107.407 85.008 107.759 85.552L107.591 85.936L107.831 83.944H110.111V94H107.639V91.48L107.903 92.08C107.839 92.208 107.703 92.392 107.495 92.632C107.287 92.856 107.007 93.096 106.655 93.352C106.319 93.608 105.919 93.824 105.455 94C105.007 94.16 104.487 94.24 103.895 94.24ZM104.567 92.224C105.095 92.224 105.567 92.128 105.983 91.936C106.399 91.744 106.751 91.472 107.039 91.12C107.327 90.768 107.527 90.352 107.639 89.872V87.784C107.511 87.336 107.295 86.952 106.991 86.632C106.687 86.296 106.319 86.032 105.887 85.84C105.471 85.648 105.007 85.552 104.495 85.552C103.919 85.552 103.391 85.696 102.911 85.984C102.431 86.256 102.047 86.64 101.759 87.136C101.471 87.632 101.327 88.208 101.327 88.864C101.327 89.488 101.471 90.056 101.759 90.568C102.063 91.08 102.463 91.488 102.959 91.792C103.455 92.08 103.991 92.224 104.567 92.224ZM120.714 94.408C119.786 94.408 119.026 94.128 118.434 93.568C117.842 93.008 117.53 92.288 117.498 91.408V83.944H119.97V90.52C120.002 91.032 120.146 91.456 120.402 91.792C120.674 92.112 121.106 92.28 121.698 92.296C122.242 92.296 122.722 92.136 123.138 91.816C123.57 91.48 123.906 91.032 124.146 90.472C124.402 89.896 124.53 89.24 124.53 88.504V83.944H127.002V94H124.77L124.578 91.672L124.674 92.056C124.466 92.504 124.17 92.912 123.786 93.28C123.402 93.632 122.946 93.904 122.418 94.096C121.89 94.304 121.322 94.408 120.714 94.408ZM136.595 83.944L136.835 86.824L136.715 86.44C136.987 85.832 137.371 85.312 137.867 84.88C138.363 84.448 138.875 84.12 139.403 83.896C139.947 83.656 140.403 83.536 140.771 83.536L140.651 85.984C139.883 85.936 139.211 86.08 138.635 86.416C138.075 86.752 137.635 87.2 137.315 87.76C136.995 88.32 136.835 88.92 136.835 89.56V94H134.387V83.944H136.595ZM151.117 94.24C150.173 94.24 149.317 94.048 148.549 93.664C147.781 93.264 147.173 92.672 146.725 91.888C146.277 91.104 146.053 90.136 146.053 88.984C146.053 87.848 146.285 86.872 146.749 86.056C147.229 85.24 147.853 84.616 148.621 84.184C149.405 83.736 150.253 83.512 151.165 83.512C152.125 83.512 152.909 83.72 153.517 84.136C154.141 84.536 154.629 85.008 154.981 85.552L154.813 85.936L155.053 83.944H157.333V94H154.861V91.48L155.125 92.08C155.061 92.208 154.925 92.392 154.717 92.632C154.509 92.856 154.229 93.096 153.877 93.352C153.541 93.608 153.141 93.824 152.677 94C152.229 94.16 151.709 94.24 151.117 94.24ZM151.789 92.224C152.317 92.224 152.789 92.128 153.205 91.936C153.621 91.744 153.973 91.472 154.261 91.12C154.549 90.768 154.749 90.352 154.861 89.872V87.784C154.733 87.336 154.517 86.952 154.213 86.632C153.909 86.296 153.541 86.032 153.109 85.84C152.693 85.648 152.229 85.552 151.717 85.552C151.141 85.552 150.613 85.696 150.133 85.984C149.653 86.256 149.269 86.64 148.981 87.136C148.693 87.632 148.549 88.208 148.549 88.864C148.549 89.488 148.693 90.056 148.981 90.568C149.285 91.08 149.685 91.488 150.181 91.792C150.677 92.08 151.213 92.224 151.789 92.224ZM166.928 83.944L167.144 86.248L167.048 85.936C167.384 85.216 167.904 84.64 168.608 84.208C169.312 83.76 170.144 83.536 171.104 83.536C172.048 83.536 172.824 83.816 173.432 84.376C174.056 84.936 174.376 85.664 174.392 86.56V94H171.92V87.424C171.904 86.912 171.752 86.496 171.464 86.176C171.176 85.84 170.728 85.664 170.12 85.648C169.576 85.648 169.08 85.816 168.632 86.152C168.184 86.472 167.832 86.912 167.576 87.472C167.32 88.032 167.192 88.68 167.192 89.416V94H164.72V83.944H166.928ZM182.733 79.528H185.205V83.968H187.893V85.912H185.205V94H182.733V85.912H180.957V83.968H182.733V79.528ZM219.851 94C219.691 94 219.451 94 219.131 94C218.811 94 218.475 94 218.123 94C217.787 94 217.491 94 217.235 94C216.995 94 216.875 94 216.875 94L208.667 83.104C208.523 82.88 208.347 82.6 208.139 82.264C207.947 81.912 207.779 81.528 207.635 81.112C207.491 80.68 207.419 80.232 207.419 79.768C207.419 79.096 207.579 78.464 207.899 77.872C208.235 77.264 208.723 76.768 209.363 76.384C210.019 75.984 210.811 75.784 211.739 75.784C212.731 75.784 213.611 75.984 214.379 76.384C215.147 76.768 215.771 77.232 216.251 77.776L214.979 79.48C214.483 79.016 213.995 78.648 213.515 78.376C213.051 78.088 212.595 77.944 212.147 77.944C211.475 77.944 210.955 78.144 210.587 78.544C210.235 78.944 210.059 79.424 210.059 79.984C210.059 80.256 210.115 80.544 210.227 80.848C210.355 81.136 210.475 81.392 210.587 81.616C210.715 81.824 210.795 81.952 210.827 82L219.851 94ZM210.875 85.72C210.443 85.72 210.019 85.808 209.603 85.984C209.187 86.144 208.819 86.376 208.499 86.68C208.179 86.968 207.923 87.304 207.731 87.688C207.555 88.072 207.467 88.488 207.467 88.936C207.467 89.544 207.619 90.072 207.923 90.52C208.243 90.968 208.667 91.32 209.195 91.576C209.723 91.832 210.299 91.96 210.923 91.96C211.515 91.96 212.027 91.872 212.459 91.696C212.907 91.504 213.283 91.264 213.587 90.976C213.907 90.672 214.147 90.336 214.307 89.968L215.939 91.384C215.523 92.184 214.859 92.864 213.947 93.424C213.051 93.968 211.931 94.24 210.587 94.24C209.499 94.24 208.515 94.016 207.635 93.568C206.771 93.12 206.083 92.504 205.571 91.72C205.059 90.936 204.803 90.048 204.803 89.056C204.803 88.304 204.971 87.608 205.307 86.968C205.659 86.312 206.123 85.752 206.699 85.288C207.275 84.808 207.915 84.432 208.619 84.16C209.339 83.872 210.075 83.72 210.827 83.704L210.875 85.72ZM216.731 83.704H219.083L216.227 90.976L214.379 89.824L216.731 83.704ZM238.665 79.528H241.137V83.968H243.825V85.912H241.137V94H238.665V85.912H236.889V83.968H238.665V79.528ZM252.302 83.944L252.542 86.824L252.422 86.44C252.694 85.832 253.078 85.312 253.574 84.88C254.07 84.448 254.582 84.12 255.11 83.896C255.654 83.656 256.11 83.536 256.478 83.536L256.358 85.984C255.59 85.936 254.918 86.08 254.342 86.416C253.782 86.752 253.342 87.2 253.022 87.76C252.702 88.32 252.542 88.92 252.542 89.56V94H250.094V83.944H252.302ZM266.823 94.24C265.879 94.24 265.023 94.048 264.255 93.664C263.487 93.264 262.879 92.672 262.431 91.888C261.983 91.104 261.759 90.136 261.759 88.984C261.759 87.848 261.991 86.872 262.455 86.056C262.935 85.24 263.559 84.616 264.327 84.184C265.111 83.736 265.959 83.512 266.871 83.512C267.831 83.512 268.615 83.72 269.223 84.136C269.847 84.536 270.335 85.008 270.687 85.552L270.519 85.936L270.759 83.944H273.039V94H270.567V91.48L270.831 92.08C270.767 92.208 270.631 92.392 270.423 92.632C270.215 92.856 269.935 93.096 269.583 93.352C269.247 93.608 268.847 93.824 268.383 94C267.935 94.16 267.415 94.24 266.823 94.24ZM267.495 92.224C268.023 92.224 268.495 92.128 268.911 91.936C269.327 91.744 269.679 91.472 269.967 91.12C270.255 90.768 270.455 90.352 270.567 89.872V87.784C270.439 87.336 270.223 86.952 269.919 86.632C269.615 86.296 269.247 86.032 268.815 85.84C268.399 85.648 267.935 85.552 267.423 85.552C266.847 85.552 266.319 85.696 265.839 85.984C265.359 86.256 264.975 86.64 264.687 87.136C264.399 87.632 264.255 88.208 264.255 88.864C264.255 89.488 264.399 90.056 264.687 90.568C264.991 91.08 265.391 91.488 265.887 91.792C266.383 92.08 266.919 92.224 267.495 92.224ZM284.53 94.24C283.586 94.24 282.738 94.024 281.986 93.592C281.234 93.144 280.642 92.512 280.21 91.696C279.778 90.88 279.562 89.928 279.562 88.84C279.562 87.72 279.794 86.768 280.258 85.984C280.722 85.184 281.346 84.576 282.13 84.16C282.93 83.728 283.826 83.512 284.818 83.512C285.586 83.512 286.314 83.672 287.002 83.992C287.706 84.296 288.25 84.728 288.634 85.288L288.562 86.128V75.352H291.01V94H288.538V91.624L288.802 92.272C288.306 92.832 287.698 93.304 286.978 93.688C286.258 94.056 285.442 94.24 284.53 94.24ZM285.298 92.152C285.858 92.152 286.354 92.056 286.786 91.864C287.218 91.672 287.586 91.4 287.89 91.048C288.194 90.68 288.41 90.256 288.538 89.776V87.76C288.426 87.312 288.21 86.92 287.89 86.584C287.586 86.232 287.21 85.96 286.762 85.768C286.314 85.576 285.826 85.48 285.298 85.48C284.706 85.48 284.162 85.624 283.666 85.912C283.186 86.184 282.794 86.568 282.49 87.064C282.202 87.56 282.058 88.136 282.058 88.792C282.058 89.416 282.202 89.984 282.49 90.496C282.794 91.008 283.194 91.416 283.69 91.72C284.186 92.008 284.722 92.152 285.298 92.152ZM298.394 83.944H300.866V94H298.394V83.944ZM298.25 80.344C298.25 79.96 298.402 79.64 298.706 79.384C299.01 79.128 299.338 79 299.69 79C300.058 79 300.386 79.128 300.674 79.384C300.962 79.64 301.106 79.96 301.106 80.344C301.106 80.728 300.962 81.048 300.674 81.304C300.386 81.544 300.058 81.664 299.69 81.664C299.338 81.664 299.01 81.544 298.706 81.304C298.402 81.048 298.25 80.728 298.25 80.344ZM309.188 79.528H311.66V83.968H314.348V85.912H311.66V94H309.188V85.912H307.412V83.968H309.188V79.528ZM320.617 83.944H323.089V94H320.617V83.944ZM320.473 80.344C320.473 79.96 320.625 79.64 320.929 79.384C321.233 79.128 321.561 79 321.913 79C322.281 79 322.609 79.128 322.897 79.384C323.185 79.64 323.329 79.96 323.329 80.344C323.329 80.728 323.185 81.048 322.897 81.304C322.609 81.544 322.281 81.664 321.913 81.664C321.561 81.664 321.233 81.544 320.929 81.304C320.625 81.048 320.473 80.728 320.473 80.344ZM329.587 88.864C329.587 87.856 329.827 86.952 330.307 86.152C330.787 85.336 331.451 84.696 332.299 84.232C333.147 83.768 334.115 83.536 335.203 83.536C336.307 83.536 337.275 83.768 338.107 84.232C338.939 84.696 339.579 85.336 340.027 86.152C340.491 86.952 340.723 87.856 340.723 88.864C340.723 89.872 340.491 90.784 340.027 91.6C339.579 92.416 338.939 93.064 338.107 93.544C337.275 94.008 336.299 94.24 335.179 94.24C334.107 94.24 333.147 94.024 332.299 93.592C331.467 93.16 330.803 92.544 330.307 91.744C329.827 90.928 329.587 89.968 329.587 88.864ZM332.083 88.888C332.083 89.512 332.219 90.08 332.491 90.592C332.763 91.088 333.131 91.488 333.595 91.792C334.059 92.08 334.579 92.224 335.155 92.224C335.747 92.224 336.275 92.08 336.739 91.792C337.203 91.488 337.563 91.088 337.819 90.592C338.091 90.08 338.227 89.512 338.227 88.888C338.227 88.264 338.091 87.704 337.819 87.208C337.563 86.712 337.203 86.312 336.739 86.008C336.275 85.704 335.747 85.552 335.155 85.552C334.563 85.552 334.035 85.704 333.571 86.008C333.107 86.312 332.739 86.72 332.467 87.232C332.211 87.728 332.083 88.28 332.083 88.888ZM349.455 83.944L349.671 86.248L349.575 85.936C349.911 85.216 350.431 84.64 351.135 84.208C351.839 83.76 352.671 83.536 353.631 83.536C354.575 83.536 355.351 83.816 355.959 84.376C356.583 84.936 356.903 85.664 356.919 86.56V94H354.447V87.424C354.431 86.912 354.279 86.496 353.991 86.176C353.703 85.84 353.255 85.664 352.647 85.648C352.103 85.648 351.607 85.816 351.159 86.152C350.711 86.472 350.359 86.912 350.103 87.472C349.847 88.032 349.719 88.68 349.719 89.416V94H347.247V83.944H349.455ZM368.5 94.24C367.556 94.24 366.7 94.048 365.932 93.664C365.164 93.264 364.556 92.672 364.108 91.888C363.66 91.104 363.436 90.136 363.436 88.984C363.436 87.848 363.668 86.872 364.132 86.056C364.612 85.24 365.236 84.616 366.004 84.184C366.788 83.736 367.636 83.512 368.548 83.512C369.508 83.512 370.292 83.72 370.9 84.136C371.524 84.536 372.012 85.008 372.364 85.552L372.196 85.936L372.436 83.944H374.716V94H372.244V91.48L372.508 92.08C372.444 92.208 372.308 92.392 372.1 92.632C371.892 92.856 371.612 93.096 371.26 93.352C370.924 93.608 370.524 93.824 370.06 94C369.612 94.16 369.092 94.24 368.5 94.24ZM369.172 92.224C369.7 92.224 370.172 92.128 370.588 91.936C371.004 91.744 371.356 91.472 371.644 91.12C371.932 90.768 372.132 90.352 372.244 89.872V87.784C372.116 87.336 371.9 86.952 371.596 86.632C371.292 86.296 370.924 86.032 370.492 85.84C370.076 85.648 369.612 85.552 369.1 85.552C368.524 85.552 367.996 85.696 367.516 85.984C367.036 86.256 366.652 86.64 366.364 87.136C366.076 87.632 365.932 88.208 365.932 88.864C365.932 89.488 366.076 90.056 366.364 90.568C366.668 91.08 367.068 91.488 367.564 91.792C368.06 92.08 368.596 92.224 369.172 92.224ZM382.103 75.352H384.575V94H382.103V75.352ZM411.41 93.064C410.962 93.432 410.418 93.72 409.778 93.928C409.154 94.136 408.522 94.24 407.882 94.24C406.778 94.24 405.802 94.024 404.954 93.592C404.122 93.16 403.474 92.552 403.01 91.768C402.546 90.984 402.314 90.048 402.314 88.96C402.314 87.888 402.562 86.96 403.058 86.176C403.554 85.376 404.21 84.768 405.026 84.352C405.842 83.92 406.706 83.704 407.618 83.704C408.45 83.704 409.186 83.816 409.826 84.04C410.466 84.264 411.018 84.576 411.482 84.976L410.258 86.584C409.986 86.36 409.642 86.16 409.226 85.984C408.826 85.808 408.362 85.72 407.834 85.72C407.274 85.72 406.762 85.864 406.298 86.152C405.834 86.424 405.466 86.808 405.194 87.304C404.922 87.784 404.786 88.336 404.786 88.96C404.786 89.552 404.922 90.104 405.194 90.616C405.482 91.112 405.874 91.504 406.37 91.792C406.866 92.08 407.434 92.224 408.074 92.224C408.49 92.224 408.874 92.168 409.226 92.056C409.578 91.928 409.89 91.752 410.162 91.528L411.41 93.064ZM421.057 94.408C420.129 94.408 419.369 94.128 418.777 93.568C418.185 93.008 417.873 92.288 417.841 91.408V83.944H420.313V90.52C420.345 91.032 420.489 91.456 420.745 91.792C421.017 92.112 421.449 92.28 422.041 92.296C422.585 92.296 423.065 92.136 423.481 91.816C423.913 91.48 424.249 91.032 424.489 90.472C424.745 89.896 424.873 89.24 424.873 88.504V83.944H427.345V94H425.113L424.921 91.672L425.017 92.056C424.809 92.504 424.513 92.912 424.129 93.28C423.745 93.632 423.289 93.904 422.761 94.096C422.233 94.304 421.665 94.408 421.057 94.408ZM434.73 83.944H437.202V94H434.73V83.944ZM434.586 80.344C434.586 79.96 434.738 79.64 435.042 79.384C435.346 79.128 435.674 79 436.026 79C436.394 79 436.722 79.128 437.01 79.384C437.298 79.64 437.442 79.96 437.442 80.344C437.442 80.728 437.298 81.048 437.01 81.304C436.722 81.544 436.394 81.664 436.026 81.664C435.674 81.664 435.346 81.544 435.042 81.304C434.738 81.048 434.586 80.728 434.586 80.344ZM447.492 94.216C446.756 94.216 446.044 94.088 445.356 93.832C444.668 93.56 444.1 93.168 443.652 92.656L444.708 91.264C445.14 91.664 445.572 91.968 446.004 92.176C446.452 92.368 446.876 92.464 447.276 92.464C447.596 92.464 447.884 92.432 448.14 92.368C448.396 92.288 448.604 92.16 448.764 91.984C448.924 91.808 449.004 91.576 449.004 91.288C449.004 90.952 448.892 90.688 448.668 90.496C448.444 90.304 448.156 90.144 447.804 90.016C447.452 89.888 447.076 89.768 446.676 89.656C445.828 89.384 445.188 89 444.756 88.504C444.324 87.992 444.108 87.392 444.108 86.704C444.108 86.176 444.236 85.68 444.492 85.216C444.764 84.736 445.172 84.344 445.716 84.04C446.26 83.736 446.932 83.584 447.732 83.584C448.468 83.584 449.116 83.672 449.676 83.848C450.236 84.008 450.756 84.288 451.236 84.688L450.276 86.176C449.988 85.888 449.644 85.672 449.244 85.528C448.86 85.368 448.508 85.28 448.188 85.264C447.9 85.264 447.636 85.312 447.396 85.408C447.156 85.488 446.964 85.616 446.82 85.792C446.676 85.952 446.604 86.144 446.604 86.368C446.588 86.688 446.692 86.952 446.916 87.16C447.156 87.352 447.46 87.512 447.828 87.64C448.196 87.752 448.556 87.872 448.908 88C449.404 88.144 449.844 88.344 450.228 88.6C450.612 88.84 450.916 89.136 451.14 89.488C451.364 89.84 451.476 90.288 451.476 90.832C451.476 91.424 451.332 91.984 451.044 92.512C450.756 93.024 450.316 93.44 449.724 93.76C449.132 94.064 448.388 94.216 447.492 94.216ZM458.125 83.944H460.597V94H458.125V83.944ZM457.981 80.344C457.981 79.96 458.133 79.64 458.437 79.384C458.741 79.128 459.069 79 459.421 79C459.789 79 460.117 79.128 460.405 79.384C460.693 79.64 460.837 79.96 460.837 80.344C460.837 80.728 460.693 81.048 460.405 81.304C460.117 81.544 459.789 81.664 459.421 81.664C459.069 81.664 458.741 81.544 458.437 81.304C458.133 81.048 457.981 80.728 457.981 80.344ZM470.167 83.944L470.383 86.248L470.287 85.936C470.623 85.216 471.143 84.64 471.847 84.208C472.551 83.76 473.383 83.536 474.343 83.536C475.287 83.536 476.063 83.816 476.671 84.376C477.295 84.936 477.615 85.664 477.631 86.56V94H475.159V87.424C475.143 86.912 474.991 86.496 474.703 86.176C474.415 85.84 473.967 85.664 473.359 85.648C472.815 85.648 472.319 85.816 471.871 86.152C471.423 86.472 471.071 86.912 470.815 87.472C470.559 88.032 470.431 88.68 470.431 89.416V94H467.959V83.944H470.167ZM489.74 94.24C488.572 94.24 487.572 94.016 486.74 93.568C485.908 93.104 485.268 92.472 484.82 91.672C484.372 90.856 484.148 89.928 484.148 88.888C484.148 87.896 484.396 87 484.892 86.2C485.404 85.384 486.084 84.736 486.932 84.256C487.796 83.776 488.748 83.536 489.788 83.536C491.132 83.536 492.244 83.928 493.124 84.712C494.02 85.496 494.62 86.592 494.924 88L486.74 90.832L486.164 89.392L492.716 87.04L492.212 87.352C492.02 86.856 491.716 86.424 491.3 86.056C490.884 85.672 490.316 85.48 489.596 85.48C489.02 85.48 488.5 85.624 488.036 85.912C487.588 86.184 487.228 86.568 486.956 87.064C486.7 87.544 486.572 88.112 486.572 88.768C486.572 89.44 486.708 90.032 486.98 90.544C487.268 91.04 487.652 91.432 488.132 91.72C488.628 92.008 489.18 92.152 489.788 92.152C490.22 92.152 490.628 92.072 491.012 91.912C491.412 91.752 491.788 91.552 492.14 91.312L493.268 93.136C492.74 93.472 492.164 93.744 491.54 93.952C490.932 94.144 490.332 94.24 489.74 94.24Z" fill="white"/>
<rect x="20.4142" y="9.19238" width="11" height="11" transform="rotate(-45 20.4142 9.19238)" stroke="white" stroke-width="2"/>
<rect x="1.41421" width="11" height="11" transform="matrix(0.707107 0.707107 0.707107 -0.707107 19.4142 83.1924)" stroke="white" stroke-width="2"/>
<rect x="5.41421" y="24.1924" width="11" height="11" transform="rotate(-45 5.41421 24.1924)" stroke="white" stroke-width="2"/>
<rect x="1.41421" width="11" height="11" transform="matrix(0.707107 0.707107 0.707107 -0.707107 4.41421 69.1924)" stroke="white" stroke-width="2"/>
<rect x="1.41421" width="11" height="11" transform="matrix(0.707107 0.707107 0.707107 -0.707107 11.4142 46.1924)" fill="white" stroke="white" stroke-width="2"/>
<rect x="4" y="24.4142" width="2" height="42.7543" transform="rotate(-45 4 24.4142)" fill="white"/>
<rect width="2" height="42.7543" transform="matrix(0.707107 0.707107 0.707107 -0.707107 4 54.2319)" fill="white"/>
<rect x="4" y="40.4142" width="2" height="43.5536" transform="rotate(-45 4 40.4142)" fill="white"/>
<rect width="2" height="22.3562" transform="matrix(0.707107 0.707107 0.707107 -0.707107 19 84.2319)" fill="white"/>
<rect x="18.9153" y="9.3295" width="2" height="23.1918" transform="rotate(-45 18.9153 9.3295)" fill="white"/>
<rect width="2" height="42.7543" transform="matrix(0.707107 0.707107 0.707107 -0.707107 4 70.2319)" fill="white"/>
</g>
<defs>
<filter id="filter0_d_38_25" x="0" y="0" width="498.924" height="102.408" filterUnits="userSpaceOnUse" color-interpolation-filters="sRGB">
<feFlood flood-opacity="0" result="BackgroundImageFix"/>
<feColorMatrix in="SourceAlpha" type="matrix" values="0 0 0 0 0 0 0 0 0 0 0 0 0 0 0 0 0 0 127 0" result="hardAlpha"/>
<feOffset dy="4"/>
<feGaussianBlur stdDeviation="2"/>
<feComposite in2="hardAlpha" operator="out"/>
<feColorMatrix type="matrix" values="0 0 0 0 0 0 0 0 0 0 0 0 0 0 0 0 0 0 0.25 0"/>
<feBlend mode="normal" in2="BackgroundImageFix" result="effect1_dropShadow_38_25"/>
<feBlend mode="normal" in="SourceGraphic" in2="effect1_dropShadow_38_25" result="shape"/>
</filter>
</defs>
</svg>
